<svg id="insta-logo" xmlns="http://www.w3.org/2000/svg" viewBox="0 0 44 44">
  <defs>
    <style>
      .cls-1 {
        fill: none;
        stroke: #fff;
        stroke-width: 2px;
      }

      .cls-2 {
        fill: #fff;
        fill-rule: evenodd;
      }
    </style>
  </defs>
  <path id="Path_5" data-name="Path 5" class="cls-1" d="M43,22A21,21,0,1,1,22,1,21,21,0,0,1,43,22Z"/>
  <path id="Path_6" data-name="Path 6" class="cls-2" d="M22,12.982c2.937,0,3.285.011,4.445.064a6.09,6.09,0,0,1,2.043.379,3.642,3.642,0,0,1,2.088,2.088,6.09,6.09,0,0,1,.379,2.043c.053,1.16.064,1.508.064,4.445s-.011,3.285-.064,4.445a6.089,6.089,0,0,1-.379,2.042,3.642,3.642,0,0,1-2.088,2.088,6.085,6.085,0,0,1-2.043.379c-1.16.053-1.508.064-4.445.064s-3.285-.011-4.445-.064a6.084,6.084,0,0,1-2.043-.379,3.642,3.642,0,0,1-2.088-2.088,6.084,6.084,0,0,1-.379-2.042c-.053-1.16-.064-1.508-.064-4.445s.011-3.285.064-4.445a6.085,6.085,0,0,1,.379-2.043,3.642,3.642,0,0,1,2.088-2.088,6.089,6.089,0,0,1,2.043-.379C18.715,12.993,19.063,12.982,22,12.982ZM22,11c-2.987,0-3.362.013-4.535.066a8.074,8.074,0,0,0-2.67.511,5.625,5.625,0,0,0-3.217,3.217,8.071,8.071,0,0,0-.511,2.67C11.013,18.638,11,19.013,11,22s.013,3.362.066,4.535a8.072,8.072,0,0,0,.511,2.67,5.624,5.624,0,0,0,3.217,3.217,8.072,8.072,0,0,0,2.67.511C18.638,32.987,19.013,33,22,33s3.362-.013,4.535-.066a8.071,8.071,0,0,0,2.67-.511,5.625,5.625,0,0,0,3.217-3.217,8.074,8.074,0,0,0,.511-2.67C32.987,25.362,33,24.987,33,22s-.013-3.362-.066-4.535a8.074,8.074,0,0,0-.511-2.67,5.625,5.625,0,0,0-3.217-3.217,8.074,8.074,0,0,0-2.67-.511C25.362,11.013,24.987,11,22,11Zm.022,5.369a5.653,5.653,0,1,0,5.653,5.653A5.653,5.653,0,0,0,22.022,16.369Zm0,9.322a3.669,3.669,0,1,1,3.669-3.669A3.669,3.669,0,0,1,22.022,25.691Zm7.137-9.584a1.31,1.31,0,1,1-1.31-1.309A1.31,1.31,0,0,1,29.159,16.107Z"/>
</svg>
