<svg xmlns="http://www.w3.org/2000/svg" viewBox="0 0 21.75 19.977">
  <defs>
    <style>
      .cls-1 {
        fill: #fff;
      }
    </style>
  </defs>
  <g id="Symbol_1_1" data-name="Symbol 1 – 1" transform="translate(-42 -623)">
    <path id="Path_10" data-name="Path 10" class="cls-1" d="M24.179,17.069a14.951,14.951,0,0,1-4.266-.622,1.256,1.256,0,0,0-1.22.266L16.8,18.9A17.694,17.694,0,0,1,8.47,11.32l2.356-1.842a1.067,1.067,0,0,0,.29-1.132,11.459,11.459,0,0,1-.677-3.918,1.161,1.161,0,0,0-1.2-1.1H5.063c-.653,0-1.438.266-1.438,1.1,0,10.31,9.34,18.878,20.554,18.878a1.2,1.2,0,0,0,1.2-1.31V18.167A1.161,1.161,0,0,0,24.179,17.069Z" transform="translate(38.375 619.671)"/>
  </g>
</svg>
