<svg id="vk-logo" xmlns="http://www.w3.org/2000/svg" viewBox="0 0 44 44">
  <defs>
    <style>
      .cls-1 {
        fill: none;
        stroke: #fff;
        stroke-width: 2px;
      }

      .cls-2 {
        fill: #fff;
        fill-rule: evenodd;
      }
    </style>
  </defs>
  <path id="Path_7" data-name="Path 7" class="cls-1" d="M43,22A21,21,0,1,1,22,1,21,21,0,0,1,43,22Z"/>
  <path id="Path_8" data-name="Path 8" class="cls-2" d="M22.726,29.931a1.28,1.28,0,0,0,.682-.293,1.058,1.058,0,0,0,.2-.645s-.028-1.967.9-2.258,2.095,1.9,3.344,2.744a2.4,2.4,0,0,0,1.66.5l3.339-.046s1.746-.106.918-1.454A11.024,11.024,0,0,0,31.3,25.658c-2.095-1.907-1.813-1.6.708-4.9,1.536-2.009,2.15-3.236,1.958-3.76-.182-.5-1.312-.368-1.312-.368l-3.759.023a.869.869,0,0,0-.485.084,1.042,1.042,0,0,0-.333.4,21.164,21.164,0,0,1-1.388,2.877c-1.674,2.789-2.343,2.937-2.617,2.764-.637-.4-.478-1.623-.478-2.488,0-2.7.418-3.831-.813-4.123a6.54,6.54,0,0,0-1.755-.172,8.271,8.271,0,0,0-3.119.313c-.428.205-.758.664-.556.69a1.7,1.7,0,0,1,1.109.547,3.506,3.506,0,0,1,.372,1.669s.221,3.183-.517,3.578c-.506.271-1.2-.282-2.694-2.813a23.342,23.342,0,0,1-1.341-2.729,1.1,1.1,0,0,0-.311-.412,1.556,1.556,0,0,0-.577-.228l-3.572.023s-.537.014-.734.244c-.175.2-.013.624-.013.624s2.8,6.423,5.963,9.66a8.667,8.667,0,0,0,6.2,2.772Z"/>
</svg>
