<svg id="yt-logo" xmlns="http://www.w3.org/2000/svg" viewBox="0 0 44 44">
  <defs>
    <style>
      .cls-1 {
        fill: none;
        stroke: #fff;
        stroke-width: 2px;
      }

      .cls-2 {
        fill: #fff;
        fill-rule: evenodd;
      }
    </style>
  </defs>
  <path id="Path_3" data-name="Path 3" class="cls-1" d="M43,22A21,21,0,1,1,22,1,21,21,0,0,1,43,22Z"/>
  <path id="Path_4" data-name="Path 4" class="cls-2" d="M17.52,16.323c-.029.388-.033,3.131,0,3.178a9.706,9.706,0,0,0,1.425.018c.054-.014.058-.136.058-1.947V15.641l.1-.31c.054-.17.188-.616.3-.991s.247-.827.3-1c.483-1.581.945-3.137.957-3.225l.015-.109-.677,0c-.385,0-.6,0-.714,0a.27.27,0,0,0-.1.013c-.008.007-.219.811-.595,2.269-.18.695-.331,1.249-.335,1.234l-.082-.3-.4-1.463c-.257-.953-.472-1.738-.479-1.744S16.459,10,15.8,10c-.015,0-.03,0-.039,0a18.625,18.625,0,0,0,.9,3.027c.139.445.348,1.075.464,1.4A4.3,4.3,0,0,1,17.52,16.323Zm-1.578,7.643-.017,4.051-.017,4.051-.657.009c-.507.007-.661,0-.673-.034,0-.008-.006-.24-.01-.632-.006-.724-.012-2-.014-3.428l-.009-4.018-.739-.008-.739-.009V22.682l2.184.009,2.185.009.01.625.009.624-.756.009ZM28.583,26.58a6.4,6.4,0,0,0-.053,1.153c.017.044.11.052.671.052h.653l-.011-.592c-.011-.543-.018-.606-.09-.753a.55.55,0,0,0-.55-.335A.594.594,0,0,0,28.583,26.58ZM31,30.86A1.719,1.719,0,0,1,29.748,32.1a1.9,1.9,0,0,1-2.19-.915c-.212-.427-.219-.512-.219-2.6a11.886,11.886,0,0,1,.06-2.14,1.73,1.73,0,0,1,1.177-1.318,1.849,1.849,0,0,1,2.253.865,3.512,3.512,0,0,1,.239,1.751l.017,1.042-1.275.01-1.275.008-.01.7c-.014.987.052,1.292.318,1.472a.657.657,0,0,0,.753-.025c.176-.155.225-.321.243-.8l.015-.426h1.232l-.019.475A4.426,4.426,0,0,1,31,30.86Zm-6.125-.193a.449.449,0,0,1-.17.242.652.652,0,0,1-.752-.11l-.116-.089V26.458l.117-.089c.356-.273.744-.243.9.069a8.062,8.062,0,0,1,.071,2.1A10.612,10.612,0,0,1,24.871,30.667Zm1.135.919a1.01,1.01,0,0,1-.533.523A1.29,1.29,0,0,1,24.1,31.7a1.727,1.727,0,0,0-.3-.248c-.025,0-.037.107-.037.317v.317h-1.2v-9.4h1.2v1.534c0,.843.012,1.534.024,1.534a2.246,2.246,0,0,0,.281-.248,1.436,1.436,0,0,1,.936-.477c.612-.046.976.269,1.143.991a16.672,16.672,0,0,1,.058,2.568C26.209,31.124,26.208,31.135,26.006,31.587Zm-6.143-.033a2.246,2.246,0,0,1-.756.526.919.919,0,0,1-1.166-.268c-.184-.317-.187-.388-.187-3.676V25.117h1.195l.009,2.842c.01,2.792.011,2.845.078,2.957.088.152.224.193.438.133a.925.925,0,0,0,.416-.3l.258-.256V25.117h1.2v6.968h-1.2v-.367c0-.276-.011-.367-.043-.367A.963.963,0,0,0,19.862,31.553ZM17.57,34.938c.347.013,1.267.034,2.044.048,1.619.029,4.595.012,6.3-.036,1.145-.032,3.232-.117,3.621-.147.11-.008.364-.024.565-.036a2.442,2.442,0,0,0,1.509-.5A3.477,3.477,0,0,0,32.7,32.2a26.6,26.6,0,0,0,.292-4.054,30.9,30.9,0,0,0-.108-3.432A6.661,6.661,0,0,0,32.332,22a2.309,2.309,0,0,0-1.913-1.415c-.676-.077-3.219-.187-5.572-.239a109.584,109.584,0,0,0-11.629.3,2.049,2.049,0,0,0-1,.582,3.889,3.889,0,0,0-.992,2.386,36.329,36.329,0,0,0-.017,7.935,4.306,4.306,0,0,0,.849,2.382,2.357,2.357,0,0,0,1.261.766C13.638,34.764,15.239,34.854,17.57,34.938Zm8.687-15.322a.769.769,0,0,1-.663-.44c-.168-.333-.168-.332-.168-3.654v-3.1h1.347l.014,2.858c.015,3.1.011,3.032.2,3.079.17.042.358-.049.593-.289l.225-.229.009-2.709.008-2.709.673-.009.673-.008v7.1l-.092.019a10.471,10.471,0,0,1-1.213,0c-.05-.013-.058-.059-.058-.337v-.322l-.191.187A1.671,1.671,0,0,1,26.257,19.617Zm-3.392-1.355c.231-.176.233-.191.244-2.186a12.213,12.213,0,0,0-.042-2.025c-.063-.286-.174-.421-.391-.48a.509.509,0,0,0-.627.393,38.762,38.762,0,0,0,0,3.99.5.5,0,0,0,.814.309Zm-.528,1.354a1.9,1.9,0,0,1-1.423-.914c-.271-.495-.3-.753-.281-2.932a8.807,8.807,0,0,1,.084-2.035,1.786,1.786,0,0,1,.944-1.205,1.939,1.939,0,0,1,1.979.119,1.77,1.77,0,0,1,.761,1.175,11.4,11.4,0,0,1,.062,2.133c0,2.072-.01,2.192-.222,2.641a1.886,1.886,0,0,1-1.144.948A2.537,2.537,0,0,1,22.337,19.615Z"/>
</svg>
